<svg aria-hidden="true" style="position: absolute; width: 0; height: 0; overflow: hidden;" version="1.1" xmlns="http://www.w3.org/2000/svg" xmlns:xlink="http://www.w3.org/1999/xlink">
<defs>
<symbol id="icon-Steam" viewBox="0 0 32 32">
<path fill="#000" style="fill: var(--color1, #000)" d="M25.133 5.147c0-1.543-1.251-2.794-2.794-2.794h-12.294c-1.543 0-2.794 1.251-2.794 2.794v12.294c0 1.543 1.251 2.794 2.794 2.794h12.294c1.543 0 2.794-1.251 2.794-2.794v-12.294z"></path>
<path fill="#fff" style="fill: var(--color2, #fff)" d="M19.74 9.563c0 0.746-0.607 1.346-1.346 1.346-0.746 0-1.346-0.602-1.346-1.346s0.602-1.346 1.346-1.346c0.739 0 1.346 0.6 1.346 1.346zM20.898 9.567c0 1.39-1.125 2.51-2.508 2.51l-2.411 1.76c-0.088 0.949-0.893 1.694-1.864 1.694-0.893 0-1.648-0.635-1.831-1.478l-1.268-0.51v-2.367l2.144 0.867c0.333-0.203 0.71-0.293 1.147-0.254l1.566-2.243c0.011-1.374 1.136-2.488 2.515-2.488 1.385 0 2.51 1.125 2.51 2.508zM15.494 13.654c0-0.765-0.613-1.379-1.379-1.379-0.099 0-0.198 0.011-0.298 0.033l0.574 0.232c0.563 0.225 0.838 0.86 0.611 1.423-0.225 0.563-0.865 0.838-1.427 0.607-0.225-0.088-0.452-0.183-0.677-0.269 0.232 0.435 0.688 0.732 1.218 0.732 0.765 0 1.379-0.613 1.379-1.379zM20.071 9.567c0-0.927-0.757-1.681-1.681-1.681-0.933 0-1.687 0.754-1.687 1.681 0 0.931 0.757 1.681 1.687 1.681 0.924 0.002 1.681-0.748 1.681-1.681z"></path>
</symbol>
<symbol id="icon-google" viewBox="0 0 32 32">
<path fill="#fff" style="fill: var(--color2, #fff)" d="M25.133 5.147c0-1.543-1.251-2.794-2.794-2.794h-12.294c-1.543 0-2.794 1.251-2.794 2.794v12.294c0 1.543 1.251 2.794 2.794 2.794h12.294c1.543 0 2.794-1.251 2.794-2.794v-12.294z"></path>
<path fill="#4285f4" style="fill: var(--color3, #4285f4)" d="M20.568 11.396c0-0.317-0.028-0.622-0.081-0.914h-4.21v1.729h2.406c-0.104 0.559-0.419 1.032-0.892 1.349v1.122h1.445c0.845-0.778 1.333-1.924 1.333-3.286z"></path>
<path fill="#34a853" style="fill: var(--color4, #34a853)" d="M16.276 15.765c1.207 0 2.219-0.4 2.959-1.083l-1.445-1.122c-0.4 0.268-0.912 0.427-1.514 0.427-1.164 0-2.15-0.786-2.501-1.843h-1.494v1.158c0.736 1.461 2.247 2.463 3.995 2.463z"></path>
<path fill="#fbbc05" style="fill: var(--color5, #fbbc05)" d="M13.774 12.144c-0.089-0.268-0.14-0.555-0.14-0.849s0.051-0.581 0.14-0.849v-1.158h-1.494c-0.303 0.604-0.476 1.286-0.476 2.008s0.173 1.404 0.476 2.008l1.494-1.158z"></path>
<path fill="#ea4335" style="fill: var(--color6, #ea4335)" d="M16.276 8.602c0.656 0 1.246 0.226 1.709 0.669l1.282-1.282c-0.774-0.721-1.786-1.164-2.991-1.164-1.748 0-3.259 1.002-3.995 2.463l1.494 1.158c0.352-1.057 1.337-1.843 2.501-1.843z"></path>
</symbol>
<symbol id="icon-modal-telegram" viewBox="0 0 33 32">
<path fill="#30aae9" style="fill: var(--color7, #30aae9)" d="M22.736 2.353h-12.618c-1.584 0-2.868 1.251-2.868 2.794v12.294c0 1.544 1.284 2.794 2.868 2.794h12.618c1.584 0 2.867-1.251 2.867-2.794v-12.293c0-1.544-1.284-2.795-2.867-2.795z"></path>
<path fill="#fff" style="fill: var(--color2, #fff)" d="M11.896 11.131c2.464-1.046 4.106-1.735 4.928-2.068 2.347-0.951 2.834-1.116 3.152-1.122 0.070-0.001 0.226 0.016 0.328 0.096 0.065 0.055 0.109 0.133 0.12 0.221l0 0.002c0.011 0.064 0.025 0.21 0.014 0.325-0.127 1.302-0.678 4.461-0.957 5.919-0.119 0.616-0.352 0.824-0.578 0.844-0.49 0.044-0.863-0.316-1.338-0.619-0.744-0.475-1.164-0.771-1.886-1.234-0.834-0.536-0.294-0.83 0.182-1.311 0.124-0.126 2.286-2.042 2.328-2.216 0.005-0.022 0.010-0.103-0.039-0.146s-0.122-0.028-0.175-0.016c-0.075 0.016-1.263 0.781-3.564 2.295-0.337 0.226-0.643 0.336-0.916 0.33-0.302-0.006-0.882-0.166-1.313-0.303-0.529-0.168-0.95-0.256-0.913-0.541 0.019-0.148 0.228-0.3 0.628-0.455z"></path>
</symbol>
<symbol id="icon-modal-vk" viewBox="0 0 32 32">
<path fill="#07f" style="fill: var(--color8, #07f)" d="M7.059 5.147c0-1.544 1.264-2.794 2.824-2.794h12.426c1.56 0 2.824 1.251 2.824 2.794v12.294c0 1.544-1.264 2.794-2.824 2.794h-12.426c-1.56 0-2.824-1.251-2.824-2.794v-12.293z"></path>
<path fill="#fff" style="fill: var(--color2, #fff)" d="M16.497 14.078c-3.087 0-4.848-2.090-4.92-5.574h1.553c0.049 2.554 1.187 3.635 2.089 3.859v-3.859h1.459v2.202c0.889-0.094 1.828-1.099 2.144-2.207h1.453c-0.128 0.607-0.37 1.143-0.704 1.608l0.009-0.013c-0.344 0.48-0.771 0.876-1.263 1.177l-0.019 0.011c0.577 0.288 1.064 0.676 1.455 1.145l0.006 0.007c0.384 0.46 0.678 1.010 0.848 1.612l0.007 0.031h-1.603c-0.343-1.059-1.2-1.88-2.334-1.992v1.992h-0.181z"></path>
</symbol>
<symbol id="icon-vk" viewBox="0 0 53 32">
<path d="M51.077 3.712c0.357-1.128 0-1.955-1.704-1.955h-5.635c-1.432 0-2.093 0.715-2.451 1.504 0 0-2.864 6.6-6.925 10.885-1.312 1.243-1.909 1.637-2.624 1.637-0.36 0-0.88-0.395-0.88-1.523v-10.547c0-1.355-0.413-1.957-1.608-1.957h-8.851c-0.896 0-1.435 0.627-1.435 1.224 0 1.28 2.029 1.579 2.24 5.187v7.84c0 1.72-0.328 2.032-1.045 2.032-1.909 0-6.557-6.629-9.312-14.213-0.541-1.475-1.083-2.069-2.523-2.069h-5.637c-1.608 0-1.931 0.715-1.931 1.504 0 1.411 1.909 8.405 8.893 17.653 4.656 6.32 11.216 9.741 17.187 9.741 3.581 0 4.024-0.76 4.024-2.069v-4.773c0-1.52 0.339-1.827 1.475-1.827 0.835 0 2.267 0.395 5.611 3.44 3.819 3.611 4.448 5.229 6.597 5.229h5.635c1.611 0 2.416-0.76 1.952-2.261-0.509-1.493-2.333-3.664-4.755-6.24-1.312-1.467-3.28-3.043-3.88-3.835-0.835-1.013-0.595-1.467 0-2.368 0 0 6.867-9.136 7.581-12.24z"></path>
</symbol>
<symbol id="icon-telegram" viewBox="0 0 39 32">
<path d="M3.958 13.374s15.909-6.75 21.428-9.125c2.114-0.953 9.287-3.993 9.287-3.993s3.311-1.332 3.035 1.9c-0.094 1.329-0.827 5.989-1.563 11.028-1.105 7.131-2.299 14.924-2.299 14.924s-0.185 2.188-1.748 2.567c-1.563 0.382-4.138-1.329-4.598-1.711-0.369-0.286-6.897-4.564-9.29-6.654-0.642-0.571-1.378-1.713 0.094-3.042 3.359-3.187 6.506-6.286 9.594-9.442l0.062-0.064c1.103-1.142 2.206-3.803-2.393-0.571-6.528 4.657-12.965 9.031-12.965 9.031s-1.47 0.95-4.229 0.094c-2.762-0.854-5.982-1.994-5.982-1.994s-2.206-1.428 1.566-2.949z"></path>
</symbol>
<symbol id="icon-reg2" viewBox="0 0 29 32">
<path d="M12.256 14.979c4.136 0 7.49-3.353 7.49-7.49s-3.353-7.49-7.49-7.49v0c-4.136 0-7.49 3.353-7.49 7.49s3.353 7.49 7.49 7.49v0zM12.256 12.256c2.632 0 4.766-2.134 4.766-4.766s-2.134-4.766-4.766-4.766v0c-2.632 0-4.766 2.134-4.766 4.766s2.134 4.766 4.766 4.766v0zM19.064 32c4.512 0 8.17-3.658 8.17-8.17s-3.658-8.17-8.17-8.17v0c-4.512 0-8.17 3.658-8.17 8.17s3.658 8.17 8.17 8.17v0zM20.426 19.744c0-0.752-0.61-1.362-1.362-1.362s-1.362 0.61-1.362 1.362v0 2.725h-2.723c-0.752 0-1.362 0.61-1.362 1.362s0.61 1.362 1.362 1.362v0h2.723v2.723c0 0.752 0.61 1.362 1.362 1.362s1.362-0.61 1.362-1.362v0-2.723h2.723c0.752 0 1.362-0.61 1.362-1.362s-0.61-1.362-1.362-1.362v0h-2.723v-2.725z"></path>
<path d="M8.426 20.75c0.634-0.125 1.106-0.676 1.106-1.338 0-0.752-0.61-1.362-1.362-1.362-0.091 0-0.179 0.009-0.265 0.026l0.009-0.001c-3.712 0.709-5.755 2.334-6.835 3.962-0.411 0.606-0.733 1.312-0.924 2.069l-0.010 0.046c-0.073 0.29-0.125 0.63-0.143 0.978l-0.001 0.014v0.045s0 0.003 1.362 0.003h-1.362v0.68c0 1.88 1.525 3.405 3.405 3.405h4.083c0.752 0 1.362-0.61 1.362-1.362s-0.61-1.362-1.362-1.362h-4.083c-0.376 0-0.682-0.305-0.682-0.682v0-0.664l0.006-0.067c0.006-0.072 0.024-0.192 0.062-0.35 0.121-0.474 0.312-0.891 0.564-1.262l-0.009 0.014c0.622-0.938 1.984-2.202 5.078-2.792z"></path>
</symbol>
<symbol id="icon-reg1" viewBox="0 0 26 32">
<path d="M13.091 17.247c0.688 0 1.247 0.559 1.247 1.247v3.741c0 0.688-0.558 1.247-1.247 1.247s-1.247-0.558-1.247-1.247v0-3.741c0-0.688 0.559-1.247 1.247-1.247z"></path>
<path d="M5.61 8.519c0-0.001 0-0.003 0-0.004 0-4.131 3.349-7.481 7.481-7.481 3.604 0 6.613 2.549 7.322 5.942l0.009 0.049c0.016 0.074 0.025 0.16 0.025 0.247 0 0.688-0.558 1.247-1.247 1.247-0.601 0-1.103-0.425-1.22-0.991l-0.001-0.008c-0.481-2.29-2.484-3.985-4.884-3.985-0.001 0-0.003 0-0.004 0h0c-2.754 0-4.987 2.232-4.988 4.986v2.493h10.275c1.004 0 1.833 0 2.508 0.055 0.701 0.058 1.344 0.18 1.949 0.489 0.943 0.487 1.693 1.236 2.167 2.151l0.013 0.028c0.308 0.605 0.431 1.251 0.489 1.951 0.055 0.675 0.055 1.504 0.054 2.506v5.59c0 1.004 0 1.833-0.054 2.506-0.058 0.701-0.18 1.345-0.489 1.949-0.488 0.943-1.237 1.693-2.153 2.167l-0.028 0.013c-0.605 0.308-1.248 0.432-1.949 0.489-0.675 0.055-1.504 0.055-2.508 0.055h-10.575c-1.004 0-1.833 0-2.508-0.055-0.7-0.058-1.344-0.18-1.949-0.489-0.943-0.487-1.693-1.236-2.167-2.151l-0.013-0.028c-0.308-0.605-0.431-1.251-0.489-1.951-0.052-0.676-0.052-1.504-0.052-2.508v-5.59c0-1.004 0-1.831 0.054-2.506 0.058-0.701 0.18-1.345 0.489-1.949 0.487-0.943 1.237-1.693 2.153-2.167l0.028-0.013c0.605-0.308 1.249-0.431 1.949-0.489l0.314-0.020v-2.528zM7.855 13.507c-1.068 0-1.793 0-2.356 0.047-0.545 0.044-0.825 0.125-1.020 0.225-0.472 0.243-0.847 0.618-1.084 1.076l-0.007 0.014c-0.099 0.195-0.179 0.474-0.224 1.021-0.045 0.561-0.047 1.287-0.047 2.355v5.485c0 1.069 0 1.795 0.047 2.356 0.044 0.545 0.125 0.825 0.225 1.020 0.239 0.47 0.62 0.851 1.089 1.091 0.195 0.099 0.474 0.179 1.021 0.224 0.561 0.047 1.287 0.047 2.355 0.047h10.473c1.068 0 1.793 0 2.356-0.047 0.545-0.044 0.825-0.125 1.020-0.224 0.47-0.24 0.851-0.621 1.091-1.091 0.099-0.195 0.179-0.474 0.224-1.021 0.047-0.56 0.047-1.286 0.047-2.355v-5.485c0-1.068 0-1.793-0.047-2.356-0.044-0.545-0.125-0.825-0.225-1.020-0.243-0.472-0.618-0.847-1.076-1.084l-0.014-0.007c-0.195-0.099-0.474-0.179-1.021-0.224-0.561-0.047-1.287-0.047-2.355-0.047h-10.473z"></path>
</symbol>
<symbol id="icon-modal-lock-1" viewBox="0 0 28 32">
<path d="M14.222 0c4.909 0 8.889 3.98 8.889 8.889v0l-0.002 3.556h0.777c1.586 0 2.16 0.165 2.738 0.475 0.581 0.309 1.036 0.764 1.346 1.344s0.475 1.156 0.475 2.738v10.441c0 1.586-0.165 2.16-0.475 2.738-0.309 0.581-0.764 1.036-1.344 1.346s-1.156 0.475-2.738 0.475h-19.332c-1.586 0-2.16-0.165-2.738-0.475-0.576-0.309-1.037-0.768-1.337-1.327l-0.008-0.017c-0.308-0.581-0.473-1.156-0.473-2.738v-10.443c0-1.586 0.165-2.16 0.475-2.738 0.309-0.581 0.764-1.036 1.344-1.346s1.156-0.475 2.738-0.475h0.777v-3.554c0-4.909 3.98-8.889 8.889-8.889v0zM14.222 3.556c-2.946 0-5.333 2.388-5.333 5.333v0l-0.002 3.556h10.667l0.002-3.556c0-2.946-2.388-5.333-5.333-5.333v0z"></path>
</symbol>
<symbol id="icon-modal-lock" viewBox="0 0 28 32">
<path d="M14.222 0c4.909 0 8.889 3.98 8.889 8.889v0l-0.002 3.556h0.777c1.586 0 2.16 0.165 2.738 0.475 0.581 0.309 1.036 0.764 1.346 1.344s0.475 1.156 0.475 2.738v10.441c0 1.586-0.165 2.16-0.475 2.738-0.309 0.581-0.764 1.036-1.344 1.346s-1.156 0.475-2.738 0.475h-19.332c-1.586 0-2.16-0.165-2.738-0.475-0.576-0.309-1.037-0.768-1.337-1.327l-0.008-0.017c-0.308-0.581-0.473-1.156-0.473-2.738v-10.443c0-1.586 0.165-2.16 0.475-2.738 0.309-0.581 0.764-1.036 1.344-1.346s1.156-0.475 2.738-0.475h0.777v-3.554c0-4.909 3.98-8.889 8.889-8.889v0zM14.222 3.556c-2.946 0-5.333 2.388-5.333 5.333v0l-0.002 3.556h10.667l0.002-3.556c0-2.946-2.388-5.333-5.333-5.333v0z"></path>
</symbol>
<symbol id="icon-modal-close" viewBox="0 0 32 32">
<path d="M2.092 2.092c0.326-0.327 0.778-0.529 1.276-0.529s0.95 0.202 1.276 0.529l11.356 11.354 11.356-11.354c0.326-0.326 0.777-0.528 1.275-0.528 0.418 0 0.803 0.142 1.109 0.381l-0.004-0.003 0.172 0.15c0.327 0.327 0.529 0.778 0.529 1.276s-0.202 0.95-0.529 1.276l-11.354 11.356 11.354 11.356c0.65 0.65 0.7 1.674 0.15 2.38l-0.15 0.172c-0.326 0.327-0.778 0.529-1.276 0.529s-0.95-0.202-1.276-0.529l-11.356-11.354-11.356 11.354c-0.326 0.326-0.777 0.528-1.275 0.528-0.418 0-0.803-0.142-1.109-0.381l0.004 0.003-0.172-0.15c-0.327-0.326-0.529-0.778-0.529-1.276s0.202-0.95 0.529-1.276l11.354-11.356-11.354-11.356c-0.326-0.326-0.528-0.777-0.528-1.275 0-0.418 0.142-0.803 0.381-1.109l-0.003 0.004 0.15-0.172z"></path>
</symbol>
<symbol id="icon-modal-btn-close" viewBox="0 0 32 32">
<path d="M2.092 2.092c0.326-0.327 0.778-0.529 1.276-0.529s0.95 0.202 1.276 0.529l11.356 11.354 11.356-11.354c0.326-0.326 0.777-0.528 1.275-0.528 0.418 0 0.803 0.142 1.109 0.381l-0.004-0.003 0.172 0.15c0.327 0.327 0.529 0.778 0.529 1.276s-0.202 0.95-0.529 1.276l-11.354 11.356 11.354 11.356c0.65 0.65 0.7 1.674 0.15 2.38l-0.15 0.172c-0.326 0.327-0.778 0.529-1.276 0.529s-0.95-0.202-1.276-0.529l-11.356-11.354-11.356 11.354c-0.326 0.326-0.777 0.528-1.275 0.528-0.418 0-0.803-0.142-1.109-0.381l0.004 0.003-0.172-0.15c-0.327-0.326-0.529-0.778-0.529-1.276s0.202-0.95 0.529-1.276l11.354-11.356-11.354-11.356c-0.326-0.326-0.528-0.777-0.528-1.275 0-0.418 0.142-0.803 0.381-1.109l-0.003 0.004 0.15-0.172z"></path>
</symbol>
<symbol id="icon-login" viewBox="0 0 32 32">
<path d="M24 8c0-4.42-3.58-8-8-8-0.001 0-0.001 0-0.002 0-4.417 0-7.998 3.581-7.998 7.998 0 0.001 0 0.001 0 0.002v-0c0 4.42 3.58 8 8 8s8-3.58 8-8zM0 28v1.991c0 1.108 0.9 2.009 2.009 2.009h27.982c1.109 0 2.009-0.899 2.009-2.009v0-1.991c0-7.001-10.66-9.001-16-9.001s-16 2.002-16 9.001z"></path>
</symbol>
<symbol id="icon-dc" viewBox="0 0 39 32">
<path d="M32.491 4.011c4.279 6.382 6.393 13.579 5.602 21.867-0.004 0.037-0.022 0.068-0.050 0.089l-0 0c-2.705 2.052-5.852 3.704-9.254 4.787l-0.221 0.061c-0.010 0.003-0.023 0.005-0.035 0.005-0.040 0-0.076-0.020-0.097-0.051l-0-0c-0.658-0.914-1.3-1.958-1.866-3.048l-0.067-0.143c-0.009-0.016-0.014-0.036-0.014-0.057 0-0.052 0.032-0.096 0.077-0.114l0.001-0c1.031-0.393 2.011-0.866 2.958-1.426 0.035-0.022 0.058-0.061 0.058-0.105 0-0.040-0.019-0.076-0.049-0.098l-0-0c-0.232-0.176-0.423-0.33-0.61-0.488l0.023 0.019c-0.020-0.017-0.046-0.027-0.074-0.027-0.018 0-0.035 0.004-0.050 0.012l0.001-0c-6.128 2.871-12.841 2.871-19.040 0-0.014-0.006-0.030-0.010-0.047-0.010-0.029 0-0.056 0.011-0.076 0.028l0-0c-0.19 0.16-0.389 0.315-0.587 0.466-0.030 0.023-0.050 0.059-0.050 0.099 0 0.045 0.024 0.085 0.061 0.106l0.001 0c0.944 0.549 1.927 1.029 2.955 1.426 0.069 0.027 0.098 0.103 0.066 0.169-0.558 1.12-1.207 2.183-1.936 3.193-0.023 0.031-0.059 0.050-0.099 0.050-0.012 0-0.023-0.002-0.034-0.005l0.001 0c-3.617-1.149-6.759-2.802-9.538-4.909l0.078 0.057c-0.027-0.022-0.045-0.054-0.048-0.091l-0-0c-0.661-7.168 0.686-14.425 5.595-21.865 0.012-0.020 0.030-0.036 0.052-0.045l0.001-0c2.227-1.065 4.813-1.906 7.522-2.393l0.187-0.028c0.007-0.001 0.014-0.002 0.022-0.002 0.044 0 0.083 0.023 0.104 0.059l0 0.001c0.334 0.601 0.715 1.371 0.974 2 1.302-0.211 2.803-0.332 4.331-0.332s3.030 0.121 4.493 0.353l-0.162-0.021c0.258-0.617 0.626-1.399 0.96-2 0.020-0.037 0.058-0.061 0.103-0.061 0.007 0 0.015 0.001 0.021 0.002l-0.001-0c2.898 0.517 5.485 1.359 7.9 2.505l-0.188-0.080c0.023 0.009 0.039 0.025 0.048 0.046zM16.437 17.641c0.030-2.119-1.495-3.872-3.406-3.872-1.897 0-3.406 1.737-3.406 3.872 0 2.133 1.541 3.872 3.406 3.872 1.897 0 3.406-1.737 3.406-3.872zM29.024 17.641c0.030-2.119-1.493-3.872-3.406-3.872-1.895 0-3.403 1.737-3.403 3.872 0 2.133 1.538 3.872 3.406 3.872 1.911 0 3.406-1.737 3.406-3.872z"></path>
</symbol>
</defs>
</svg>
